<?xml version="1.0" encoding="utf-8"?>
<!-- Generator: Adobe Illustrator 16.0.0, SVG Export Plug-In . SVG Version: 6.00 Build 0)  -->
<!DOCTYPE svg PUBLIC "-//W3C//DTD SVG 1.1//EN" "http://www.w3.org/Graphics/SVG/1.1/DTD/svg11.dtd">
<svg version="1.1" id="Capa_1" xmlns="http://www.w3.org/2000/svg" xmlns:xlink="http://www.w3.org/1999/xlink" x="0px" y="0px"
	 width="572px" height="320px" viewBox="0 0 572 320" enable-background="new 0 0 572 320" xml:space="preserve">
<g>
	<g>
		<path fill="#239392" d="M171.92,210.695v2.139h-5.03v18.83h-2.547v-18.83h-4.998v-2.139H171.92z"/>
		<path fill="#239392" d="M184.87,210.695v2.104h-8.865v6.948h6.979v2.104h-6.979v7.703h9.117v2.105h-11.664v-20.969h11.412V210.695
			z"/>
		<path fill="#239392" d="M200.867,225.66c-0.566,3.145-1.696,6.443-6.476,6.443c-6.351,0-7.293-6.695-7.293-10.847
			c0-2.858,0.439-11.003,7.387-11.003c5.156,0,6.131,4.464,6.507,6.382l-2.42,0.599c-0.407-2.043-0.974-4.842-4.024-4.842
			c-4.621,0-4.746,6.729-4.746,8.803c0,2.924,0.471,8.771,4.746,8.771c2.359,0,3.27-1.258,4.024-4.873L200.867,225.66z"/>
		<path fill="#239392" d="M203.975,210.695h2.546v8.896h7.641v-8.896h2.547v20.969h-2.547v-9.966h-7.641v9.966h-2.546V210.695z"/>
		<path fill="#239392" d="M224.249,210.695l8.016,16.565v-16.565h2.199v20.969h-2.514l-8.739-17.855v17.855h-2.2v-20.969H224.249z"
			/>
		<path fill="#239392" d="M252.851,221.195c0,4.59-1.132,10.908-7.388,10.908c-6.507,0-7.513-6.729-7.513-10.908
			c0-4.401,1.101-10.939,7.513-10.939C251.688,210.256,252.851,216.512,252.851,221.195z M241.786,214.594
			c-0.912,1.762-1.195,4.369-1.195,6.602c0,2.357,0.313,4.873,1.195,6.539c0.817,1.572,1.885,2.266,3.677,2.266
			c1.823,0,2.83-0.881,3.553-2.23c0.942-1.762,1.194-4.4,1.194-6.57c0-2.422-0.313-4.938-1.194-6.569
			c-0.691-1.321-1.634-2.265-3.614-2.265C243.577,212.361,242.54,213.18,241.786,214.594z"/>
		<path fill="#239392" d="M258.978,210.695v18.863h7.953v2.104h-10.499v-20.971h2.546V210.695z"/>
		<path fill="#239392" d="M282.835,221.195c0,4.59-1.131,10.908-7.388,10.908c-6.507,0-7.513-6.729-7.513-10.908
			c0-4.401,1.101-10.939,7.513-10.939C281.673,210.256,282.835,216.512,282.835,221.195z M271.77,214.594
			c-0.911,1.762-1.194,4.369-1.194,6.602c0,2.357,0.315,4.873,1.194,6.539c0.817,1.572,1.888,2.266,3.678,2.266
			c1.823,0,2.829-0.881,3.552-2.23c0.945-1.762,1.197-4.4,1.197-6.57c0-2.422-0.315-4.938-1.197-6.569
			c-0.69-1.321-1.633-2.265-3.613-2.265C273.562,212.361,272.524,213.18,271.77,214.594z"/>
		<path fill="#239392" d="M299.934,221.289v10.658h-1.762l-0.347-2.861c-0.534,0.975-1.603,3.018-5.029,3.018
			c-6.286,0-7.198-7.293-7.198-10.75c0-4.496,1.099-11.098,7.669-11.098c4.308,0,5.689,2.703,6.479,5.752l-2.296,0.881
			c-0.599-2.104-1.289-4.496-4.243-4.496c-3.711,0-4.904,3.742-4.904,8.74c0,3.301,0.533,8.834,4.904,8.834
			c4.368,0,4.275-5.219,4.243-6.57h-4.274v-2.105L299.934,221.289L299.934,221.289z"/>
		<path fill="#239392" d="M303.669,210.695l4.591,9.65l4.526-9.65h2.327l-5.784,12.104v8.865h-2.547v-8.865l-5.816-12.104H303.669z"
			/>
		<path fill="#239392" d="M335.259,210.695v2.104h-8.456v6.948h6.947v2.104h-6.947v9.811h-2.547v-20.971h11.003V210.695z"/>
		<path fill="#239392" d="M351.193,221.195c0,4.59-1.131,10.908-7.389,10.908c-6.509,0-7.515-6.729-7.515-10.908
			c0-4.401,1.103-10.939,7.515-10.939C350.031,210.256,351.193,216.512,351.193,221.195z M340.128,214.594
			c-0.911,1.762-1.194,4.369-1.194,6.602c0,2.357,0.315,4.873,1.194,6.539c0.817,1.572,1.888,2.266,3.679,2.266
			c1.822,0,2.828-0.881,3.551-2.23c0.945-1.762,1.197-4.4,1.197-6.57c0-2.422-0.313-4.938-1.197-6.569
			c-0.688-1.321-1.633-2.265-3.611-2.265C341.92,212.361,340.883,213.18,340.128,214.594z"/>
		<path fill="#239392" d="M360.873,210.695c0.345,0,2.768,0.031,4.244,1.164c1.006,0.754,2.012,2.264,2.012,4.558
			c0,3.804-2.547,5.062-3.458,5.502l3.931,9.745h-2.734l-3.521-9.148h-4.023v9.148h-2.545v-20.969H360.873z M357.32,212.802v7.608
			h3.175c2.956,0,4.087-1.76,4.087-4.023c0-3.019-2.326-3.585-3.896-3.585H357.32z"/>
		<path fill="#239392" d="M378.691,210.695h2.547v8.896h7.64v-8.896h2.545v20.969h-2.545v-9.966h-7.64v9.966h-2.547V210.695z"/>
		<path fill="#239392" d="M398.367,210.695v13.863c0,2.767,0,5.406,3.836,5.406c3.961,0,3.961-2.798,3.961-5.531v-13.738h2.388
			v13.611c0,3.146,0,7.797-6.441,7.797c-6.132,0-6.287-4.4-6.287-7.545v-13.863H398.367z"/>
		<path fill="#239392" d="M412.887,210.695h3.68l4.937,16.881l4.937-16.881h3.584v20.969h-2.392v-18.171l-5.406,18.171h-1.854
			l-5.281-18.201v18.201h-2.2v-20.969H412.887z"/>
		<path fill="#239392" d="M441.583,210.695l5.596,20.969h-2.578l-1.538-6.004h-6.286l-1.511,6.004h-2.578l5.879-20.969H441.583z
			 M442.527,223.616l-2.61-10.437l-2.64,10.437H442.527z"/>
		<path fill="#239392" d="M453.055,210.695l8.018,16.565v-16.565h2.199v20.969h-2.516l-8.739-17.855v17.855h-2.201v-20.969H453.055z
			"/>
		<path fill="#239392" d="M475.432,210.695h5.689c1.919,0,3.867,0,5.156,1.51c1.162,1.352,1.258,3.049,1.258,3.678
			c0,3.395-2.327,4.307-3.206,4.652c0.942,0.252,3.929,1.101,3.929,5.281c0,3.301-1.729,5.848-6.979,5.848h-5.85L475.432,210.695
			L475.432,210.695z M477.979,219.592h2.8c1.665,0,4.116-0.156,4.116-3.457c0-3.333-2.607-3.333-3.771-3.333h-3.145V219.592z
			 M477.979,229.559h3.237c2.61,0,4.402-1.068,4.402-3.867c0-0.881-0.19-2.295-1.479-3.207c-1.006-0.723-2.042-0.784-3.426-0.784
			h-2.734V229.559z"/>
		<path fill="#239392" d="M503.438,210.695v2.104h-8.864v6.948h6.979v2.104h-6.979v7.703h9.117v2.105h-11.663v-20.969h11.41V210.695
			z"/>
		<path fill="#239392" d="M509.028,210.695v20.969h-2.544v-20.969H509.028z"/>
		<path fill="#239392" d="M516.605,210.695l8.016,16.565v-16.565h2.2v20.969h-2.517l-8.737-17.855v17.855h-2.202v-20.969H516.605z"
			/>
		<path fill="#239392" d="M544.642,221.289v10.658h-1.761l-0.347-2.861c-0.534,0.975-1.604,3.018-5.029,3.018
			c-6.287,0-7.198-7.293-7.198-10.75c0-4.496,1.101-11.098,7.67-11.098c4.309,0,5.69,2.703,6.479,5.752l-2.295,0.881
			c-0.599-2.104-1.289-4.496-4.243-4.496c-3.711,0-4.905,3.742-4.905,8.74c0,3.301,0.534,8.834,4.905,8.834
			c4.368,0,4.275-5.219,4.243-6.57h-4.275v-2.105L544.642,221.289L544.642,221.289z"/>
		<path fill="#239392" d="M558.562,216.135c-0.566-1.697-1.32-3.742-4.214-3.742c-2.859,0-3.487,2.17-3.487,3.271
			c0,2.201,1.729,2.895,4.62,3.994c2.452,0.939,5.975,2.293,5.975,6.316c0,2.607-1.761,6.129-6.697,6.129
			c-1.792,0-3.834-0.533-5.153-1.76c-1.479-1.352-1.854-3.049-2.074-4.182l2.324-0.66c0.315,1.384,1.038,4.465,4.969,4.465
			c3.145,0,3.991-2.201,3.991-3.584c0-2.482-2.138-3.396-4.116-4.15c-2.422-0.941-3.396-1.317-4.497-2.295
			c-1.101-0.975-1.822-2.576-1.822-4.147c0-2.546,1.854-5.532,6.192-5.532c4.715,0,5.814,3.709,6.256,5.221L558.562,216.135z"/>
	</g>
	<g>
		<g>
			<path fill="#96D60B" d="M229.294,104.322c-0.016-0.885,0.16-1.889,0.525-3.014c0.365-1.123,0.973-2.184,1.82-3.182
				c0.854-0.996,1.992-1.844,3.424-2.543c1.434-0.699,3.229-1.068,5.385-1.105c1.348-0.023,2.621,0.109,3.82,0.396
				c1.199,0.285,2.248,0.738,3.143,1.359c0.9,0.619,1.615,1.445,2.154,2.477c0.537,1.029,0.82,2.26,0.844,3.684
				c0.023,1.309-0.166,2.582-0.568,3.824c-0.402,1.238-1.057,2.35-1.965,3.328s-2.059,1.779-3.453,2.4
				c-1.394,0.621-3.074,0.947-5.039,0.982c-3.391,0.059-5.906-0.695-7.553-2.266C230.187,109.094,229.341,106.98,229.294,104.322z"
				/>
			<path fill="#96D60B" d="M373.867,104.492c-0.014-0.885,0.16-1.889,0.527-3.014c0.363-1.123,0.971-2.186,1.818-3.18
				c0.854-0.998,1.99-1.846,3.426-2.545c1.434-0.697,3.227-1.066,5.385-1.105c1.348-0.023,2.623,0.109,3.819,0.396
				c1.198,0.285,2.247,0.738,3.144,1.359c0.897,0.621,1.613,1.445,2.156,2.477c0.531,1.029,0.816,2.26,0.842,3.684
				c0.021,1.309-0.168,2.584-0.568,3.824c-0.402,1.24-1.059,2.35-1.967,3.33c-0.904,0.977-2.059,1.777-3.453,2.4
				c-1.395,0.619-3.074,0.947-5.035,0.982c-3.391,0.057-5.91-0.697-7.553-2.268C374.762,109.266,373.914,107.152,373.867,104.492z"
				/>
		</g>
		<path fill="#4F4138" d="M554.422,164.529c-48.742,52.146-33.189,3.85-31.938-5.154c0,0,2.682-16.443,3.436-21.578
			c1.066-7.09-0.512-13.762-6.131-14.045c-9.908-0.498-32.469,35.166-34.869,39.707c0.379-4.057,6.457-35.662,5.055-38.561
			c-1.398-2.898-10.848-2.371-13.221,1.578c-1.092,1.818-5.324,17.17-7.023,35.393c-0.537,5.809-1.156,11.617-1.439,16.846
			c-5.283,3.949-9.461,8.262-13.344,7.387c-9.379-2.115-4.947-16.201-3.314-25.219c1.645-9.016,5.701-24.139,5.057-25.701
			c-0.406-0.955-0.771-1.752-1.322-2.291c-0.566-0.539-1.199-0.889-1.914-1.037c-0.729-0.148-1.494-0.215-2.318-0.203
			c-0.604,0-1.227,0.027-1.857,0.068c-0.621,0.041-1.238,0.066-1.85,0.08c-0.713,0.014-1.426-0.027-2.112-0.094
			c-0.675-0.066-1.362-0.229-2.021-0.498c-0.66-0.271-1.227-0.688-1.672-1.295c-0.457-0.594-0.916-1.199-1.402-1.834
			c-0.473-0.619-1.078-1.17-1.807-1.656c-0.713-0.486-1.726-0.459-2.979-0.688c-2.562-0.473-13.773,0.176-23.234,12.25
			c-8.467,10.811-18.117,28.952-17.914,42.105c-2.507,1.455-5.216,2.886-8.072,4.179c-5.688,2.571-9.959-1.832-10.014-7.17
			c-0.041-2.521,0.176-5.378,0.674-8.546c0.485-3.182,1.119-6.43,1.888-9.771c0.771-3.342,1.59-6.684,2.467-10.027
			c0.877-3.342,1.696-6.469,2.479-9.365c0.769-2.898,1.416-5.5,1.926-7.791c0.515-2.291,0.757-4.043,0.729-5.256
			c-0.027-1.43-0.457-2.561-1.295-3.396c-0.834-0.836-3.49-1.119-5.053-0.783c-1.553,0.322-3.062,0.822-4.518,1.484
			c-1.439,0.646-2.732,1.494-3.867,2.531c-1.135,1.039-1.887,2.279-2.252,3.721c-0.916,4.137-1.979,8.666-3.184,13.586
			c-1.213,4.92-2.344,9.84-3.406,14.785c-1.08,4.947-1.971,9.716-2.684,14.326c-0.715,4.598-1.08,6.781-1.012,10.244
			c0,0.23,0.08-0.066,0.092,0.162c-4.943,3.826-10.512,7.09-13.895,5.148c-6.631-3.812,2.441-39.152,3.885-47.27
			c1.426-8.113,2.6-17.857-6.174-18.883c-9.369-1.092-28.467,27.738-34.773,41.121c0.162-0.795,2.887-13.773,4.461-23.924
			c1.119-7.195,0.525-15.566-5.041-16.389c-12.599-1.873-33.882,35.785-36.269,40.326c0.377-4.057,6.551-36.066,5.148-38.965
			c-1.389-2.896-10.85-2.371-13.223,1.592c-1.092,1.805-5.309,17.156-7.021,35.394c-0.537,5.688-1.131,11.375-1.428,16.537
			c-3.598,2.332-7.711,4.688-12.211,6.728c-5.674,2.572-9.947-1.834-10.014-7.172c-0.027-2.521,0.174-5.377,0.674-8.545
			c0.498-3.181,1.131-6.431,1.9-9.771c0.754-3.342,1.59-6.686,2.467-10.027c0.877-3.341,1.697-6.469,2.467-9.367
			c0.781-2.898,1.414-5.5,1.926-7.789c0.512-2.291,0.756-4.043,0.742-5.258c-0.029-1.428-0.459-2.561-1.295-3.395
			c-0.848-0.838-3.49-1.119-5.055-0.783c-1.562,0.324-3.07,0.822-4.514,1.482c-1.443,0.648-2.736,1.496-3.869,2.533
			c-1.146,1.039-1.887,2.279-2.252,3.723c-0.916,4.137-1.979,8.664-3.18,13.584c-1.213,4.92-2.346,9.838-3.422,14.785
			c-1.066,4.944-1.955,9.719-2.668,14.328c-0.73,4.596-1.08,6.776-1.025,10.241c0.039,2.466,0.352,4.729,0.904,6.794
			c0.564,2.047,1.455,3.771,2.695,5.188c1.227,1.4,2.83,2.494,4.797,3.248c1.967,0.771,4.381,1.134,7.238,1.078
			c3.18-0.053,6.738-0.014,10.268-1.228c3.52-1.211,6.969-2.724,10.354-4.517c1.197-0.631,2.371-1.293,3.518-1.979
			c0.82,3.923,2.531,6.373,5.672,6.562c8.775,0.525,6.256,1.43,17.389-20.525c13.693-26.969,23.102-41.512,19.854-21.24
			c-2.724,17.037-7.091,41.404,0.78,41.727c11.47,0.473,27.884-53.035,35.997-52.023c3.155,0.391-12.209,43.572,0.741,51.658
			c8.666,5.406,19.882,0.781,26.728-3.18c0.068,0.094,0.136,0.176,0.218,0.271c1.239,1.4,2.829,2.492,4.799,3.246
			c1.968,0.768,4.381,1.133,7.235,1.078c3.193-0.055,6.738-0.016,10.271-1.229c3.533-1.213,6.981-2.725,10.365-4.516
			c0.821-0.432,1.63-0.891,2.425-1.348c4.221,6.727,11.023,8.354,15.688,8.463c10.959,0.271,25.447-12.912,25.447-12.912
			s3.11,11.402,16.604,11.619c4.488,0.066,8.062-2.602,13.572-5.555c0.932,3.102,2.588,5.016,5.338,5.176
			c8.773,0.525,9.703-3.867,18.979-22.912c15.659-32.143,21.471-34.566,18.061-17.492c-2.305,11.523-4.219,26.375-3.112,34.26
			c0.229,1.644,2.418,14.457,24.343,3.721c14.491-7.098,27.902-22.123,28.693-27.394
			C562.611,160.844,557.447,161.293,554.422,164.529z M413.777,184.848c-14.873-6.691,10.41-55.135,28.045-41.537
			C441.822,143.311,432.316,193.189,413.777,184.848z"/>
	</g>
	<path fill="#4F4138" stroke="#4F4138" stroke-width="2" stroke-miterlimit="10" d="M159.489,197.396
		c20.217,0.674,54.119-4.275,55.467-52.795c0.75-26.953-23.57-33.217-68.047-39.955c-44.477-6.74-67.051-12.137-65.592-31.898
		c1.236-16.734,30.1-30.998,54.359-31.896c24.26-0.9,48.666-0.186,50.992,10.107c2.357,10.445-12.803,9.211-10.107,15.051
		c2.696,5.84,13.029,7.639,19.768,2.695c6.738-4.941,12.24-20.104,5.391-27.854c-8.836-9.996-40.85-17.814-75.477-12.131
		c-36.951,6.064-60.199,25.271-60.875,48.184c-0.68,23.115,13.816,30.324,68.961,37.625c54.855,7.264,65.855,24.234,66.412,38.379
		C201.489,171.896,190.931,196.299,159.489,197.396z"/>
	<g>
		<g>
			<g opacity="0.54">
			</g>
			<g opacity="0.82">
				<g>
					<g>
						<path fill="#28170C" d="M52.79,221.584c0,0,26.682-33.475,51.373-5.146C104.163,216.438,82.585,191.146,52.79,221.584z"/>
					</g>
					<g>
						<path fill="#28170C" d="M55.103,230.484c0,0,20.904-37.219,49.881-13.111C104.983,217.373,79.573,195.777,55.103,230.484z"/>
					</g>
					<g>
						<g>
							<g>
								<path fill="#28170C" d="M152.196,215.066c0,0-28.859-22.582-43.629,5.684C108.567,220.75,121.366,195.605,152.196,215.066z"
									/>
							</g>
							<g>
								<path fill="#28170C" d="M151.907,221.711c0,0-25.625-26.07-44.01,0.078C107.897,221.789,123.917,198.482,151.907,221.711z"
									/>
							</g>
						</g>
					</g>
				</g>
			</g>
			<path fill="#452A17" stroke="#1E1007" stroke-width="0.2585" d="M178.788,160.607c-1.838-14.104-12.199-24.418-23.146-23.045
				c-3.27,0.41-6.215,1.82-8.697,3.967c-8.156-11.414-20.211-19.771-34.016-23.438c-6.438-1.303-12.068-1.996-18.828-1.996
				c-1.588,0.078-3.184,0.211-4.789,0.41c-25.629,3.209-45.479,21.611-51.389,44.806c-2.639-1.099-5.455-1.542-8.314-1.185
				c-10.947,1.371-18.334,13.91-16.498,28.008c1.834,14.101,12.197,24.416,23.145,23.046c3.791-0.476,7.152-2.291,9.854-5.046
				c11.904,13.82,33.113,17.201,56.725,14.244c25.695-3.219,46.711-13.002,53.088-32.269c2.059,0.584,4.199,0.776,6.367,0.502
				C173.235,187.242,180.622,174.705,178.788,160.607z"/>
			<path opacity="0.82" fill="#28170C" enable-background="new    " d="M178.081,156.691c-0.674,11.415-7.406,20.667-16.721,21.834
				c-2.166,0.271-4.309,0.078-6.365-0.504c-6.379,19.266-27.396,29.049-53.092,32.268c-23.609,2.957-44.816-0.426-56.721-14.242
				c-2.701,2.754-6.064,4.568-9.854,5.041c-10.168,1.277-19.824-7.533-22.621-20.086c-0.117,2.002-0.055,4.072,0.221,6.174
				c1.834,14.104,12.197,24.416,23.145,23.045c3.789-0.475,7.154-2.291,9.854-5.041c11.904,13.816,33.113,17.197,56.725,14.24
				c25.693-3.219,46.711-13,53.088-32.268c2.059,0.582,4.199,0.777,6.365,0.504c10.949-1.369,18.338-13.908,16.502-28.01
				C178.476,158.643,178.296,157.656,178.081,156.691z"/>
			<g opacity="0.27">
				<g>
					<g>
						<path fill="#B3824A" d="M112.989,126.576c17.33,5.016,25.838,12.736,33.992,24.148c2.484-2.145,5.432-3.555,8.699-3.963
							c10.426-1.307,20.314,7.984,22.82,21.054c0.053-1.713-0.031-3.469-0.262-5.248c-1.84-14.101-12.201-24.417-23.148-23.042
							c-3.27,0.408-6.215,1.818-8.699,3.963c-8.154-11.41-20.211-19.766-34.014-23.438c-7.287-2.434-18.828-1.992-18.828-1.992
							c-1.59,0.076-3.186,0.209-4.791,0.41c-25.629,3.211-45.477,21.609-51.387,44.803c-2.639-1.096-5.455-1.539-8.314-1.182
							c-10.947,1.371-18.334,13.912-16.5,28.01c0.09,0.674,0.201,1.33,0.326,1.988c0.354-11.844,7.199-21.562,16.764-22.762
							c2.861-0.357,5.678,0.086,8.314,1.184c5.91-23.191,25.76-41.592,51.391-44.803
							C90.813,125.518,102.739,124.742,112.989,126.576z"/>
					</g>
				</g>
			</g>
			<path opacity="0.34" fill="#94633A" enable-background="new    " d="M35.462,162.807c0,0,7.965-19.85,23.861-32.939
				c9.703-7.994,22.199-13.84,36.549-13.514c10.094,0.514,16.273,1.926,16.889,1.969c23.4,8.322,25.838,13.639,34.529,23.945
				c0,0-29.498-10.152-59.957-6.557C69.837,137.771,42.573,159.924,35.462,162.807z"/>
			<g>
				<g>
					
						<radialGradient id="SVGID_1_" cx="-101.5811" cy="429.2227" r="44.6436" gradientTransform="matrix(1.13 0 0 1.1085 209.9724 -301.3841)" gradientUnits="userSpaceOnUse">
						<stop  offset="0" style="stop-color:#B2804B"/>
						<stop  offset="0.509" style="stop-color:#B07E4A"/>
						<stop  offset="0.6924" style="stop-color:#A97845"/>
						<stop  offset="0.823" style="stop-color:#9E6D3D"/>
						<stop  offset="0.9279" style="stop-color:#8D5D31"/>
						<stop  offset="1" style="stop-color:#7C4D25"/>
					</radialGradient>
					<path fill="url(#SVGID_1_)" d="M95.038,145.949c0,0-40.457-23.438-51.113,12.229c-5.352,17.914-0.746,33.895,27.842,54.031
						c30.361,21.383,61.092,0.547,70.744-26.643c4.752-13.387,10.148-28.947,0.586-44.17
						C143.097,141.396,115.757,107.926,95.038,145.949z"/>
					<path fill="none" stroke="#49250A" stroke-width="0.2585" d="M95.038,145.949c0,0-40.457-23.438-51.113,12.229
						c-5.352,17.914-0.746,33.895,27.842,54.031c30.361,21.383,61.092,0.547,70.744-26.643c4.752-13.387,10.148-28.947,0.586-44.17
						C143.097,141.396,115.757,107.926,95.038,145.949z"/>
				</g>
			</g>
			<path opacity="0.47" fill="#CA9F6A" enable-background="new    " d="M44.78,168.643c10.654-35.666,51.109-12.225,51.109-12.225
				c20.721-38.025,48.061-4.557,48.061-4.557c2.193,3.49,3.592,6.998,4.398,10.495c0.361-6.806-0.895-13.776-5.23-20.681
				c0,0-27.338-33.469-48.057,4.555c0,0-40.457-23.439-51.113,12.227c-2.031,6.801-2.621,13.32-1.02,19.893
				C43.155,175.154,43.796,171.932,44.78,168.643z"/>
			<g>
				<path fill="#B2804B" d="M124.386,196.363c0,0,10.689-2.418,12.428,8.227c0.275,1.693-0.383,5.533,0.332,8.051
					c3.787,13.352,9.58,31.234-38.85,35.742c0,0-35.637,9.736-31.035-25.664c0,0-4.471-11.021,6.725-16.457L124.386,196.363z"/>
			</g>
			<path fill="none" stroke="#4D3C34" stroke-width="0.2585" d="M122.39,218.986c0,0,8.451,5.311,3.635,11.805"/>
			<path fill="none" stroke="#875529" stroke-width="0.7755" d="M90.19,185.879c0.588-0.074,7.152-4.543,15.561-1.951"/>
			<path fill="none" stroke="#875529" stroke-width="0.7755" d="M88.282,184.609c0.586-0.07,7.877-6.104,19.1-2.225"/>
			
				<radialGradient id="SVGID_2_" cx="-32.5107" cy="677.458" r="25.9165" gradientTransform="matrix(1.1264 -0.0885 0.0902 1.1049 78.4987 -520.7239)" gradientUnits="userSpaceOnUse">
				<stop  offset="0" style="stop-color:#CA9E64;stop-opacity:0"/>
				<stop  offset="0.1822" style="stop-color:#C69B62;stop-opacity:0.1822"/>
				<stop  offset="0.3523" style="stop-color:#BB915C;stop-opacity:0.3523"/>
				<stop  offset="0.5175" style="stop-color:#A88152;stop-opacity:0.5175"/>
				<stop  offset="0.6798" style="stop-color:#8E6A44;stop-opacity:0.6798"/>
				<stop  offset="0.8398" style="stop-color:#6B4D32;stop-opacity:0.8398"/>
				<stop  offset="0.9964" style="stop-color:#42291C;stop-opacity:0.9964"/>
				<stop  offset="1" style="stop-color:#41281B"/>
			</radialGradient>
			<path opacity="0.65" fill="url(#SVGID_2_)" enable-background="new    " d="M69.257,217.533c0,0,55.283,68.818,66.709-8.312
				c0,0,7.812,20.738-0.312,27.34c-8.123,6.604-35.959,13.188-43.885,13.861c-13.059,1.109-28.307-4.771-25.127-25.391"/>
			<path fill="#CCAB7F" stroke="#563304" stroke-width="0.2585" d="M136.688,216.338c1.482,18.178-12.334,34.092-30.863,35.549
				c-18.529,1.453-34.754-12.102-36.238-30.279c-1.482-18.176,12.338-34.092,30.865-35.547
				C118.981,184.605,135.206,198.162,136.688,216.338z"/>
			<path opacity="0.47" fill="#B2804B" enable-background="new    " d="M100.896,193.215c17.438-1.369,32.83,10.557,35.818,27.119
				c0.016-1.053-0.014-2.115-0.102-3.186c-1.482-18.178-17.705-31.732-36.236-30.279c-18.525,1.455-32.346,17.371-30.861,35.547
				c0.084,1.072,0.229,2.123,0.416,3.16C70.196,208.762,83.458,194.584,100.896,193.215z"/>
			<g>
				<g>
					<g>
						<path fill="#B2804B" d="M49.872,150.662c0,0,22.469-29.197,44.145-5.17C94.017,145.492,75.063,124.031,49.872,150.662z"/>
					</g>
					<g>
						<path fill="#B2804B" d="M51.997,158.291c0,0,17.438-32.34,42.74-12.006C94.737,146.285,72.538,128.064,51.997,158.291z"/>
					</g>
					<g>
						<g>
							<g>
								<path fill="#B2804B" d="M130.319,128.971c0,0-29.402-11.84-34.66,15.016C95.659,143.986,100.056,120.178,130.319,128.971z"
									/>
							</g>
							<g>
								<path fill="#B2804B" d="M131.712,134.527c0,0-27.584-15.482-36.35,10.477C95.362,145.004,102.872,121.953,131.712,134.527z"
									/>
							</g>
						</g>
					</g>
				</g>
			</g>
			
				<linearGradient id="SVGID_3_" gradientUnits="userSpaceOnUse" x1="-593.4663" y1="776.2754" x2="-583.4097" y2="776.2754" gradientTransform="matrix(1.2136 -0.1356 -0.0398 1.0348 860.3655 -709.8844)">
				<stop  offset="0" style="stop-color:#673B15"/>
				<stop  offset="0.1667" style="stop-color:#6E421B;stop-opacity:0.8333"/>
				<stop  offset="0.4181" style="stop-color:#83572B;stop-opacity:0.5819"/>
				<stop  offset="0.7211" style="stop-color:#A57946;stop-opacity:0.2789"/>
				<stop  offset="1" style="stop-color:#CA9E64;stop-opacity:0"/>
			</linearGradient>
			<path fill="url(#SVGID_3_)" d="M109.103,177.436c0,0,16.678,1.314,11.268-8.781"/>
			<path fill="#391E0D" d="M116.056,169.65c0.498,3.834-2.266,7.336-6.17,7.824c-3.906,0.49-7.479-2.223-7.977-6.053
				c-0.5-3.83,2.264-7.334,6.17-7.824C111.985,163.109,115.556,165.822,116.056,169.65z"/>
			<path opacity="0.47" fill="#160A03" enable-background="new    " d="M115.397,169.217c0.475,3.66-2.166,7.006-5.895,7.473
				c-3.734,0.471-7.143-2.115-7.619-5.779c-0.479-3.658,2.16-7.01,5.895-7.475C111.509,162.967,114.921,165.559,115.397,169.217z"/>
			<path fill="#452A17" d="M111.964,170.389c0.184,2.238-1.521,4.197-3.803,4.377c-2.281,0.184-4.279-1.492-4.463-3.729
				c-0.184-2.234,1.52-4.197,3.803-4.375C109.782,166.48,111.78,168.15,111.964,170.389z"/>
			
				<linearGradient id="SVGID_4_" gradientUnits="userSpaceOnUse" x1="-3252.3853" y1="920.0254" x2="-3242.1431" y2="920.0254" gradientTransform="matrix(-1.2458 0.199 -0.0158 1.0426 -3951.5212 -134.3213)">
				<stop  offset="0" style="stop-color:#673B15"/>
				<stop  offset="0.1667" style="stop-color:#6E421B;stop-opacity:0.8333"/>
				<stop  offset="0.4181" style="stop-color:#83572B;stop-opacity:0.5819"/>
				<stop  offset="0.7211" style="stop-color:#A57946;stop-opacity:0.2789"/>
				<stop  offset="1" style="stop-color:#CA9E64;stop-opacity:0"/>
			</linearGradient>
			<path fill="url(#SVGID_4_)" d="M85.712,181.086c0,0-17.553,6.24-11.4-5.51"/>
			<path fill="#391E0D" d="M77.118,174.854c0.131,3.863,3.426,6.889,7.361,6.764c3.936-0.127,7.02-3.357,6.893-7.223
				c-0.127-3.857-3.426-6.887-7.361-6.76C80.077,167.76,76.989,170.996,77.118,174.854z"/>
			<path opacity="0.47" fill="#160A03" enable-background="new    " d="M77.7,174.322c0.125,3.688,3.271,6.578,7.031,6.457
				c3.758-0.121,6.707-3.205,6.584-6.895c-0.125-3.688-3.271-6.58-7.031-6.461C80.524,167.545,77.575,170.635,77.7,174.322z"/>
			<path fill="#452A17" d="M81.28,174.941c0.182,2.238,2.18,3.906,4.459,3.727c2.283-0.178,3.986-2.137,3.803-4.375
				c-0.182-2.24-2.18-3.906-4.463-3.729C82.798,170.742,81.097,172.703,81.28,174.941z"/>
			<path fill="#239392" d="M82.966,175.646c-0.418,1.109,0.162,2.342,1.297,2.754c1.129,0.41,2.387-0.16,2.805-1.271
				s-0.162-2.346-1.295-2.754C84.64,173.967,83.382,174.535,82.966,175.646z"/>
			<path fill="#239392" d="M106.64,172.211c-0.416,1.113,0.164,2.346,1.297,2.754c1.133,0.41,2.389-0.158,2.807-1.27
				c0.418-1.112-0.162-2.348-1.295-2.754C108.315,170.531,107.06,171.102,106.64,172.211z"/>
			<path fill="none" stroke="#4D3C34" stroke-width="0.2585" d="M79.642,230.393"/>
			<g>
				
					<linearGradient id="SVGID_5_" gradientUnits="userSpaceOnUse" x1="-736.3765" y1="-334.7256" x2="-721.561" y2="-334.7256" gradientTransform="matrix(0.5754 0.8179 -0.8179 0.5754 244.8753 983.548)">
					<stop  offset="0" style="stop-color:#673B15"/>
					<stop  offset="0.1667" style="stop-color:#6E421B;stop-opacity:0.8333"/>
					<stop  offset="0.4181" style="stop-color:#83572B;stop-opacity:0.5819"/>
					<stop  offset="0.7211" style="stop-color:#A57946;stop-opacity:0.2789"/>
					<stop  offset="1" style="stop-color:#CA9E64;stop-opacity:0"/>
				</linearGradient>
				<path fill="url(#SVGID_5_)" d="M88.392,198.854c0.748,4.439,15.199,1.379,20.807-2.111c1.609-1.006,1.719-5.312,1.514-5.467
					C106.503,188.096,94.183,180.783,88.392,198.854"/>
				<g opacity="0.98">
					<g>
						<g>
							<path fill="#28170C" d="M98.163,188.508c5.512-1.412,10.949,0.664,13.004,4.697c-0.027-0.537-0.1-1.076-0.24-1.613
								c-1.34-5.021-7.428-7.805-13.602-6.223c-6.174,1.582-10.092,6.936-8.752,11.955c0.141,0.537,0.35,1.043,0.594,1.525
								C88.944,194.344,92.649,189.922,98.163,188.508z"/>
						</g>
						<g>
							<path fill="#28170C" d="M95.745,194.342c1.832-0.471,3.697,0.445,4.457,2.078c-0.018-0.215-0.055-0.428-0.109-0.646
								c-0.535-2.014-2.633-3.219-4.682-2.688c-2.051,0.523-3.281,2.582-2.744,4.596c0.055,0.213,0.135,0.418,0.225,0.611
								C92.741,196.5,93.913,194.809,95.745,194.342z"/>
						</g>
						<g>
							<path fill="#28170C" d="M104.341,192.471c-1.848,0.396-3.086,2.043-3.006,3.838c-0.082-0.203-0.152-0.408-0.201-0.623
								c-0.455-2.031,0.852-4.041,2.922-4.484c2.07-0.447,4.119,0.836,4.574,2.861c0.049,0.223,0.072,0.438,0.084,0.65
								C108.017,193.053,106.19,192.068,104.341,192.471z"/>
						</g>
						<path fill="#28170C" d="M100.165,195.826c0.084,1.041-0.707,1.945-1.766,2.033c-1.061,0.082-1.986-0.695-2.072-1.732
							c-0.082-1.039,0.705-1.947,1.766-2.029C99.151,194.014,100.077,194.789,100.165,195.826z"/>
						<path fill="#28170C" d="M105.315,195.422c0.084,1.039-0.705,1.947-1.766,2.029c-1.057,0.086-1.984-0.689-2.07-1.727
							c-0.084-1.041,0.707-1.951,1.764-2.033C104.304,193.609,105.229,194.381,105.315,195.422z"/>
					</g>
				</g>
			</g>
			<g>
				<path fill="#FEEECC" stroke="#4C2505" stroke-width="0.517" d="M128.673,223.352c0,0-16.318,0.557-26.564-4.01
					c-5.213-2.324-19.988-12.49-22.82,1.105c0,0,9.113,24.521,42.348,11.146C125.659,229.975,123.983,226.895,128.673,223.352z"/>
				
					<linearGradient id="SVGID_6_" gradientUnits="userSpaceOnUse" x1="-180.7427" y1="413.5732" x2="-178.8994" y2="413.5732" gradientTransform="matrix(0.9997 0.0264 -0.0264 0.9997 269.0419 -187.8151)">
					<stop  offset="0" style="stop-color:#B2804B"/>
					<stop  offset="0.3816" style="stop-color:#B88751;stop-opacity:0.6184"/>
					<stop  offset="0.9553" style="stop-color:#C89C62;stop-opacity:0.0447"/>
					<stop  offset="1" style="stop-color:#CA9E64;stop-opacity:0"/>
				</linearGradient>
				<path fill="url(#SVGID_6_)" d="M79.401,216.275c0,0-4.27,4.656-0.248,9.273"/>
				
					<linearGradient id="SVGID_7_" gradientUnits="userSpaceOnUse" x1="-784.083" y1="-346.5869" x2="-780.4795" y2="-346.5869" gradientTransform="matrix(0.8548 0.5189 -0.5189 0.8548 610.2209 932.731)">
					<stop  offset="0" style="stop-color:#58585A"/>
					<stop  offset="0.2077" style="stop-color:#7E6F5D;stop-opacity:0.7923"/>
					<stop  offset="0.4275" style="stop-color:#9F8460;stop-opacity:0.5725"/>
					<stop  offset="0.6383" style="stop-color:#B79262;stop-opacity:0.3617"/>
					<stop  offset="0.834" style="stop-color:#C59B64;stop-opacity:0.166"/>
					<stop  offset="1" style="stop-color:#CA9E64;stop-opacity:0"/>
				</linearGradient>
				<path fill="url(#SVGID_7_)" d="M124.31,229.176c0,0-0.721-1.326-2.434-1.449c-0.498-0.035-2.918,4.711-3.615,4.467"/>
				
					<linearGradient id="SVGID_8_" gradientUnits="userSpaceOnUse" x1="-3728.123" y1="346.4551" x2="-3724.5557" y2="346.4551" gradientTransform="matrix(-0.9962 -0.087 -0.087 0.9962 -3600.8279 -446.252)">
					<stop  offset="0" style="stop-color:#58585A"/>
					<stop  offset="0.2077" style="stop-color:#7E6F5D;stop-opacity:0.7923"/>
					<stop  offset="0.4275" style="stop-color:#9F8460;stop-opacity:0.5725"/>
					<stop  offset="0.6383" style="stop-color:#B79262;stop-opacity:0.3617"/>
					<stop  offset="0.834" style="stop-color:#C59B64;stop-opacity:0.166"/>
					<stop  offset="1" style="stop-color:#CA9E64;stop-opacity:0"/>
				</linearGradient>
				<path fill="url(#SVGID_8_)" d="M79.663,220.279c0,0,1.385-0.652,2.84,0.242c0.42,0.26-0.488,5.49,0.223,5.699"/>
				
					<linearGradient id="SVGID_9_" gradientUnits="userSpaceOnUse" x1="-2378.6714" y1="2003.1865" x2="-2376.1885" y2="2003.1865" gradientTransform="matrix(-0.9938 0.1107 -0.1107 -0.9938 -2010.91 2476.4341)">
					<stop  offset="0" style="stop-color:#B2804B"/>
					<stop  offset="0.3816" style="stop-color:#B88751;stop-opacity:0.6184"/>
					<stop  offset="0.9553" style="stop-color:#C89C62;stop-opacity:0.0447"/>
					<stop  offset="1" style="stop-color:#CA9E64;stop-opacity:0"/>
				</linearGradient>
				<path fill="url(#SVGID_9_)" d="M129.509,228.803c0,0,4.803-6.953-1.404-12.361"/>
				<path fill="none" stroke="#4D3C34" stroke-width="0.2585" d="M79.784,220.516c0,0,2.258-2.709,2.582-2.088
					c1.123,2.139,4.072,7.303,5.268,5.537c1.545-2.289,0.133-4.939,0.133-4.939s1.537,8.893,4.85,6.873
					c3.311-2.014,22.508,0.053,22.508,0.053s3.129,4.812,4.416,0.969c1.287-3.838,1.287-3.838,1.287-3.838s-2.322,7.812-0.146,5.512
					c2.775-2.932,0.914,1.779,5.48-2.812"/>
				
					<linearGradient id="SVGID_10_" gradientUnits="userSpaceOnUse" x1="-170.8252" y1="428.791" x2="-135.0146" y2="428.791" gradientTransform="matrix(0.9997 0.0264 -0.0264 0.9997 269.0419 -187.8151)">
					<stop  offset="0" style="stop-color:#B2804B"/>
					<stop  offset="0.3816" style="stop-color:#B88751;stop-opacity:0.6184"/>
					<stop  offset="0.9553" style="stop-color:#C89C62;stop-opacity:0.0447"/>
					<stop  offset="1" style="stop-color:#CA9E64;stop-opacity:0"/>
				</linearGradient>
				<path fill="url(#SVGID_10_)" d="M87.009,234.064c0,0,6.146,2.246,11.648,3.156c7.35,1.219,20.758-0.76,24.23-5.188
					C122.888,232.033,106.239,253.109,87.009,234.064z"/>
				<path opacity="0.26" fill="#28170C" enable-background="new    " d="M90.171,235.117c0,0,6.131,1.836,9.139,2.332
					c4.02,0.666,14.91,0.762,16.811-1.66C116.12,235.789,100.685,245.531,90.171,235.117z"/>
				<path fill="none" stroke="#4D3C34" stroke-width="0.2585" d="M87.634,223.965"/>
			</g>
			
				<linearGradient id="SVGID_11_" gradientUnits="userSpaceOnUse" x1="-153.0586" y1="479.0918" x2="-122.3779" y2="479.0918" gradientTransform="matrix(1 0 0 1 168 -291)">
				<stop  offset="0" style="stop-color:#B2804B"/>
				<stop  offset="0.2854" style="stop-color:#BF9058;stop-opacity:0.7146"/>
				<stop  offset="0.619" style="stop-color:#C79B61;stop-opacity:0.381"/>
				<stop  offset="1" style="stop-color:#CA9E64;stop-opacity:0"/>
			</linearGradient>
			<path fill="url(#SVGID_11_)" d="M25.128,193.748c-6.564-5.215-8.812-13.41-5.707-19.361c-0.631,0.504-1.227,1.062-1.756,1.703
				c-4.936,5.977-2.977,15.559,4.373,21.398c7.357,5.84,17.314,5.729,22.252-0.248c0.527-0.637,0.961-1.326,1.332-2.037
				C40.335,199.422,31.694,198.965,25.128,193.748z"/>
			
				<linearGradient id="SVGID_12_" gradientUnits="userSpaceOnUse" x1="-2012.1211" y1="4461.6299" x2="-1982.0234" y2="4461.6299" gradientTransform="matrix(-0.338 -0.9412 0.9412 -0.338 -4710.4907 -209.3035)">
				<stop  offset="0" style="stop-color:#CA9E64;stop-opacity:0"/>
				<stop  offset="0.4146" style="stop-color:#BF9058;stop-opacity:0.4146"/>
				<stop  offset="1" style="stop-color:#B2804B"/>
			</linearGradient>
			<path fill="url(#SVGID_12_)" d="M170.952,165.16c-2.785,7.822-9.889,12.67-16.65,11.812c0.699,0.41,1.436,0.771,2.229,1.047
				c7.404,2.531,15.936-2.514,19.055-11.271c3.119-8.77-0.355-17.924-7.762-20.459c-0.789-0.273-1.596-0.443-2.404-0.549
				C171.257,149.201,173.737,157.334,170.952,165.16z"/>
		</g>
	</g>
</g>
</svg>
