<?xml version="1.0" encoding="utf-8"?>
<!-- Generator: Adobe Illustrator 16.0.0, SVG Export Plug-In . SVG Version: 6.00 Build 0)  -->
<!DOCTYPE svg PUBLIC "-//W3C//DTD SVG 1.1//EN" "http://www.w3.org/Graphics/SVG/1.1/DTD/svg11.dtd">
<svg version="1.1" id="Capa_1" xmlns="http://www.w3.org/2000/svg" xmlns:xlink="http://www.w3.org/1999/xlink" x="0px" y="0px"
	 width="222px" height="167px" viewBox="0 0 222 167" enable-background="new 0 0 222 167" xml:space="preserve">
<g>
	<g>
		<g>
			<g opacity="0.82">
				<g>
					<g>
						<path fill="#28170C" d="M68.661,118.174c0,0,26.683-33.477,51.374-5.146C120.035,113.027,98.456,87.736,68.661,118.174z"/>
					</g>
					<g>
						<path fill="#28170C" d="M70.975,127.074c0,0,20.903-37.219,49.88-13.111C120.854,113.963,95.444,92.367,70.975,127.074z"/>
					</g>
					<g>
						<g>
							<g>
								<path fill="#28170C" d="M168.066,111.656c0,0-28.857-22.582-43.629,5.684C124.438,117.34,137.238,92.195,168.066,111.656z"
									/>
							</g>
							<g>
								<path fill="#28170C" d="M167.779,118.301c0,0-25.625-26.07-44.012,0.078C123.768,118.379,139.789,95.072,167.779,118.301z"
									/>
							</g>
						</g>
					</g>
				</g>
			</g>
			<path fill="#452A17" stroke="#1E1007" stroke-width="0.2585" d="M194.66,57.197c-1.838-14.104-12.199-24.418-23.146-23.045
				c-3.271,0.41-6.217,1.82-8.697,3.967c-8.153-11.414-20.211-19.771-34.016-23.438c-6.438-1.303-12.07-1.996-18.83-1.996
				c-1.588,0.078-3.184,0.211-4.789,0.41c-25.629,3.209-45.479,21.611-51.389,44.806c-2.639-1.099-5.455-1.543-8.314-1.185
				c-10.946,1.371-18.334,13.91-16.498,28.009c1.834,14.102,12.197,24.416,23.146,23.045c3.791-0.476,7.152-2.291,9.854-5.045
				c11.904,13.819,33.113,17.2,56.725,14.243c25.692-3.219,46.711-13.002,53.088-32.271c2.062,0.584,4.199,0.777,6.367,0.502
				C189.105,83.832,196.494,71.294,194.66,57.197z"/>
			<path opacity="0.82" fill="#28170C" enable-background="new    " d="M193.953,53.281c-0.674,11.415-7.406,20.667-16.723,21.834
				c-2.166,0.271-4.312,0.078-6.363-0.504c-6.379,19.266-27.396,29.047-53.094,32.268c-23.608,2.957-44.815-0.428-56.724-14.242
				c-2.701,2.754-6.063,4.566-9.854,5.041c-10.168,1.275-19.824-7.533-22.621-20.086c-0.117,2.002-0.055,4.072,0.221,6.175
				c1.834,14.103,12.197,24.417,23.145,23.043c3.789-0.477,7.154-2.291,9.854-5.041c11.904,13.814,33.113,17.195,56.729,14.238
				c25.69-3.219,46.711-13,53.088-32.268c2.059,0.583,4.199,0.775,6.365,0.504c10.946-1.37,18.338-13.909,16.502-28.01
				C194.348,55.233,194.168,54.246,193.953,53.281z"/>
			<g opacity="0.27">
				<g>
					<g>
						<path fill="#B3824A" d="M128.859,23.166c17.33,5.017,25.84,12.736,33.992,24.148c2.481-2.145,5.434-3.555,8.696-3.963
							c10.429-1.307,20.313,7.984,22.82,21.054c0.053-1.713-0.031-3.469-0.267-5.248c-1.84-14.101-12.197-24.418-23.146-23.043
							c-3.271,0.408-6.215,1.818-8.699,3.963c-8.153-11.409-20.211-19.766-34.014-23.438c-7.287-2.434-18.829-1.991-18.829-1.991
							c-1.59,0.075-3.187,0.209-4.791,0.41C78.998,18.269,59.15,36.666,53.24,59.86c-2.64-1.096-5.455-1.539-8.313-1.182
							c-10.947,1.371-18.334,13.912-16.5,28.008c0.09,0.674,0.2,1.332,0.325,1.99c0.354-11.844,7.199-21.562,16.765-22.762
							c2.86-0.356,5.678,0.086,8.313,1.185c5.91-23.191,25.761-41.593,51.392-44.804C106.684,22.108,118.611,21.332,128.859,23.166z
							"/>
					</g>
				</g>
			</g>
			<path opacity="0.34" fill="#94633A" enable-background="new    " d="M51.333,59.397c0,0,7.965-19.851,23.861-32.94
				c9.702-7.994,22.198-13.84,36.549-13.514c10.095,0.514,16.272,1.926,16.89,1.969c23.4,8.322,25.838,13.639,34.529,23.945
				c0,0-29.498-10.152-59.958-6.557C85.708,34.361,58.444,56.513,51.333,59.397z"/>
			<g>
				<g>
					
						<radialGradient id="SVGID_1_" cx="-457.8584" cy="-565.2578" r="44.6434" gradientTransform="matrix(1.13 0 0 -1.1085 628.4382 -555.589)" gradientUnits="userSpaceOnUse">
						<stop  offset="0" style="stop-color:#B2804B"/>
						<stop  offset="0.509" style="stop-color:#B07E4A"/>
						<stop  offset="0.6924" style="stop-color:#A97845"/>
						<stop  offset="0.823" style="stop-color:#9E6D3D"/>
						<stop  offset="0.9279" style="stop-color:#8D5D31"/>
						<stop  offset="1" style="stop-color:#7C4D25"/>
					</radialGradient>
					<path fill="url(#SVGID_1_)" d="M110.909,42.539c0,0-40.457-23.438-51.113,12.229c-5.352,17.914-0.745,33.896,27.843,54.031
						c30.36,21.383,61.091,0.547,70.744-26.643c4.752-13.387,10.148-28.947,0.586-44.17
						C158.969,37.986,131.629,4.516,110.909,42.539z"/>
					<path fill="none" stroke="#49250A" stroke-width="0.2585" d="M110.909,42.539c0,0-40.457-23.438-51.113,12.229
						c-5.352,17.914-0.745,33.896,27.843,54.031c30.36,21.383,61.091,0.547,70.744-26.643c4.752-13.387,10.148-28.947,0.586-44.17
						C158.969,37.986,131.629,4.516,110.909,42.539z"/>
				</g>
			</g>
			<path opacity="0.47" fill="#CA9F6A" enable-background="new    " d="M60.65,65.233c10.654-35.666,51.109-12.226,51.109-12.226
				c20.722-38.024,48.062-4.557,48.062-4.557c2.191,3.49,3.595,6.998,4.396,10.495c0.361-6.806-0.895-13.776-5.229-20.681
				c0,0-27.34-33.469-48.059,4.555c0,0-40.457-23.439-51.112,12.227c-2.031,6.801-2.621,13.32-1.021,19.894
				C59.025,71.744,59.667,68.522,60.65,65.233z"/>
			<g>
				<path fill="#B2804B" d="M140.258,92.953c0,0,10.689-2.418,12.428,8.227c0.275,1.693-0.383,5.533,0.332,8.051
					c3.787,13.354,9.58,31.234-38.851,35.742c0,0-35.637,9.736-31.035-25.664c0,0-4.471-11.02,6.726-16.457L140.258,92.953z"/>
			</g>
			<path fill="none" stroke="#4D3C34" stroke-width="0.2585" d="M138.262,115.576c0,0,8.451,5.311,3.635,11.805"/>
			<path fill="none" stroke="#875529" stroke-width="0.7755" d="M106.061,82.468c0.588-0.073,7.152-4.543,15.562-1.95"/>
			<path fill="none" stroke="#875529" stroke-width="0.7755" d="M104.153,81.199c0.586-0.07,7.876-6.104,19.101-2.224"/>
			
				<radialGradient id="SVGID_2_" cx="-437.7666" cy="-885.4775" r="25.9162" gradientTransform="matrix(1.1264 -0.0885 -0.0902 -1.1049 532.0875 -889.8389)" gradientUnits="userSpaceOnUse">
				<stop  offset="0" style="stop-color:#CA9E64;stop-opacity:0"/>
				<stop  offset="0.1822" style="stop-color:#C69B62;stop-opacity:0.1822"/>
				<stop  offset="0.3523" style="stop-color:#BB915C;stop-opacity:0.3523"/>
				<stop  offset="0.5175" style="stop-color:#A88152;stop-opacity:0.5175"/>
				<stop  offset="0.6798" style="stop-color:#8E6A44;stop-opacity:0.6798"/>
				<stop  offset="0.8398" style="stop-color:#6B4D32;stop-opacity:0.8398"/>
				<stop  offset="0.9964" style="stop-color:#42291C;stop-opacity:0.9964"/>
				<stop  offset="1" style="stop-color:#41281B"/>
			</radialGradient>
			<path opacity="0.65" fill="url(#SVGID_2_)" enable-background="new    " d="M85.128,114.123c0,0,55.284,68.818,66.71-8.312
				c0,0,7.811,20.738-0.312,27.34c-8.123,6.605-35.959,13.189-43.882,13.861c-13.06,1.109-28.308-4.771-25.127-25.391"/>
			<path fill="#CCAB7F" stroke="#563304" stroke-width="0.2585" d="M152.559,112.928c1.482,18.178-12.334,34.092-30.858,35.549
				c-18.529,1.453-34.754-12.102-36.238-30.276C83.98,100.021,97.8,84.105,116.327,82.654
				C134.852,81.195,151.078,94.752,152.559,112.928z"/>
			<path opacity="0.47" fill="#B2804B" enable-background="new    " d="M116.768,89.805c17.438-1.369,32.83,10.557,35.818,27.119
				c0.016-1.055-0.014-2.115-0.104-3.188c-1.48-18.178-17.703-31.731-36.235-30.278c-18.524,1.454-32.347,17.37-30.86,35.545
				c0.084,1.072,0.229,2.123,0.416,3.16C86.066,105.352,99.329,91.174,116.768,89.805z"/>
			<g>
				<g>
					<g>
						<path fill="#B2804B" d="M65.743,47.251c0,0,22.469-29.197,44.146-5.17C109.889,42.082,90.934,20.621,65.743,47.251z"/>
					</g>
					<g>
						<path fill="#B2804B" d="M67.868,54.88c0,0,17.438-32.34,42.739-12.006C110.607,42.875,88.409,24.654,67.868,54.88z"/>
					</g>
					<g>
						<g>
							<g>
								<path fill="#B2804B" d="M146.189,25.561c0,0-29.401-11.841-34.66,15.016C111.529,40.576,115.928,16.768,146.189,25.561z"/>
							</g>
							<g>
								<path fill="#B2804B" d="M147.584,31.117c0,0-27.584-15.482-36.352,10.477C111.232,41.593,118.744,18.542,147.584,31.117z"/>
							</g>
						</g>
					</g>
				</g>
			</g>
			
				<linearGradient id="SVGID_3_" gradientUnits="userSpaceOnUse" x1="-989.355" y1="-1069.2949" x2="-979.2979" y2="-1069.2949" gradientTransform="matrix(1.2136 -0.1356 0.0398 -1.0348 1368.3494 -1170.191)">
				<stop  offset="0" style="stop-color:#673B15"/>
				<stop  offset="0.1667" style="stop-color:#6E421B;stop-opacity:0.8333"/>
				<stop  offset="0.4181" style="stop-color:#83572B;stop-opacity:0.5819"/>
				<stop  offset="0.7211" style="stop-color:#A57946;stop-opacity:0.2789"/>
				<stop  offset="1" style="stop-color:#CA9E64;stop-opacity:0"/>
			</linearGradient>
			<path fill="url(#SVGID_3_)" d="M124.975,74.026c0,0,16.678,1.313,11.271-8.781"/>
			<path fill="#391E0D" d="M131.928,66.24c0.498,3.834-2.266,7.336-6.17,7.824c-3.906,0.49-7.479-2.223-7.977-6.053
				c-0.5-3.829,2.264-7.334,6.17-7.824C127.855,59.699,131.428,62.412,131.928,66.24z"/>
			<path opacity="0.47" fill="#160A03" enable-background="new    " d="M131.268,65.807c0.479,3.659-2.166,7.006-5.895,7.473
				c-3.734,0.47-7.145-2.116-7.62-5.78c-0.479-3.658,2.161-7.009,5.896-7.474C127.381,59.557,130.793,62.149,131.268,65.807z"/>
			<path fill="#452A17" d="M127.836,66.979c0.184,2.237-1.521,4.196-3.803,4.377c-2.281,0.183-4.279-1.492-4.465-3.729
				c-0.187-2.233,1.521-4.197,3.805-4.375C125.654,63.07,127.65,64.74,127.836,66.979z"/>
			
				<linearGradient id="SVGID_4_" gradientUnits="userSpaceOnUse" x1="-5381.0264" y1="-1254.3848" x2="-5370.7842" y2="-1254.3848" gradientTransform="matrix(-1.2458 0.199 0.0158 -1.0426 -6582.229 -162.7349)">
				<stop  offset="0" style="stop-color:#673B15"/>
				<stop  offset="0.1667" style="stop-color:#6E421B;stop-opacity:0.8333"/>
				<stop  offset="0.4181" style="stop-color:#83572B;stop-opacity:0.5819"/>
				<stop  offset="0.7211" style="stop-color:#A57946;stop-opacity:0.2789"/>
				<stop  offset="1" style="stop-color:#CA9E64;stop-opacity:0"/>
			</linearGradient>
			<path fill="url(#SVGID_4_)" d="M101.583,77.675c0,0-17.553,6.24-11.399-5.51"/>
			<path fill="#391E0D" d="M92.989,71.443c0.131,3.863,3.426,6.889,7.36,6.764c3.937-0.128,7.021-3.357,6.894-7.223
				c-0.127-3.857-3.427-6.887-7.36-6.76C95.948,64.35,92.86,67.585,92.989,71.443z"/>
			<path opacity="0.47" fill="#160A03" enable-background="new    " d="M93.571,70.912c0.125,3.688,3.271,6.578,7.03,6.457
				c3.758-0.121,6.707-3.205,6.584-6.894c-0.125-3.688-3.271-6.581-7.03-6.462C96.395,64.134,93.446,67.225,93.571,70.912z"/>
			<path fill="#452A17" d="M97.15,71.531c0.183,2.238,2.181,3.906,4.46,3.727c2.282-0.178,3.985-2.137,3.803-4.375
				c-0.183-2.239-2.181-3.905-4.463-3.729C98.669,67.332,96.969,69.292,97.15,71.531z"/>
			<path fill="#239392" d="M98.837,72.236c-0.418,1.109,0.162,2.342,1.298,2.754c1.129,0.41,2.387-0.16,2.805-1.271
				c0.418-1.11-0.162-2.346-1.295-2.754C100.512,70.557,99.253,71.125,98.837,72.236z"/>
			<path fill="#239392" d="M122.512,68.8c-0.416,1.113,0.164,2.347,1.297,2.754c1.133,0.41,2.392-0.157,2.81-1.27
				c0.418-1.111-0.162-2.348-1.298-2.754C124.186,67.121,122.932,67.692,122.512,68.8z"/>
			<path fill="none" stroke="#4D3C34" stroke-width="0.2585" d="M95.514,126.982"/>
			<g>
				
					<linearGradient id="SVGID_5_" gradientUnits="userSpaceOnUse" x1="-893.2822" y1="1261.6641" x2="-878.4678" y2="1261.6641" gradientTransform="matrix(0.5754 0.8179 0.8179 -0.5754 -407.1104 1541.832)">
					<stop  offset="0" style="stop-color:#673B15"/>
					<stop  offset="0.1667" style="stop-color:#6E421B;stop-opacity:0.8333"/>
					<stop  offset="0.4181" style="stop-color:#83572B;stop-opacity:0.5819"/>
					<stop  offset="0.7211" style="stop-color:#A57946;stop-opacity:0.2789"/>
					<stop  offset="1" style="stop-color:#CA9E64;stop-opacity:0"/>
				</linearGradient>
				<path fill="url(#SVGID_5_)" d="M104.264,95.443c0.748,4.438,15.199,1.379,20.806-2.111c1.609-1.006,1.72-5.312,1.515-5.467
					C122.375,84.686,110.055,77.373,104.264,95.443"/>
				<g opacity="0.98">
					<g>
						<g>
							<path fill="#28170C" d="M114.034,85.098c5.513-1.413,10.948,0.664,13.005,4.697c-0.027-0.537-0.102-1.076-0.24-1.613
								c-1.34-5.021-7.428-7.805-13.604-6.223c-6.174,1.582-10.092,6.936-8.751,11.956c0.141,0.537,0.35,1.043,0.594,1.524
								C104.814,90.934,108.52,86.512,114.034,85.098z"/>
						</g>
						<g>
							<path fill="#28170C" d="M111.616,90.932c1.832-0.471,3.696,0.445,4.457,2.078c-0.019-0.215-0.056-0.428-0.109-0.646
								c-0.534-2.015-2.633-3.22-4.682-2.688c-2.052,0.521-3.281,2.582-2.744,4.594c0.056,0.213,0.135,0.418,0.226,0.613
								C108.612,93.09,109.784,91.398,111.616,90.932z"/>
						</g>
						<g>
							<path fill="#28170C" d="M120.213,89.061c-1.85,0.396-3.087,2.043-3.007,3.838c-0.082-0.203-0.151-0.405-0.201-0.623
								c-0.454-2.028,0.853-4.041,2.923-4.481c2.07-0.444,4.119,0.836,4.574,2.858c0.049,0.226,0.072,0.439,0.084,0.65
								C123.889,89.643,122.061,88.658,120.213,89.061z"/>
						</g>
						<path fill="#28170C" d="M116.036,92.416c0.084,1.041-0.707,1.945-1.767,2.033c-1.062,0.082-1.985-0.695-2.071-1.732
							c-0.082-1.039,0.704-1.947,1.766-2.029C115.021,90.604,115.948,91.379,116.036,92.416z"/>
						<path fill="#28170C" d="M121.186,92.012c0.084,1.039-0.705,1.947-1.766,2.029c-1.057,0.086-1.984-0.689-2.07-1.729
							c-0.084-1.041,0.707-1.951,1.769-2.033C120.176,90.199,121.1,90.971,121.186,92.012z"/>
					</g>
				</g>
			</g>
			<g>
				<path fill="#FEEECC" stroke="#4C2505" stroke-width="0.517" d="M144.545,119.941c0,0-16.318,0.557-26.564-4.01
					c-5.213-2.324-19.985-12.49-22.817,1.104c0,0,9.113,24.521,42.349,11.146C141.531,126.564,139.854,123.484,144.545,119.941z"/>
				
					<linearGradient id="SVGID_6_" gradientUnits="userSpaceOnUse" x1="-400.4165" y1="-584.3428" x2="-398.5732" y2="-584.3428" gradientTransform="matrix(0.9997 0.0264 0.0264 -0.9997 509.028 -456.1425)">
					<stop  offset="0" style="stop-color:#B2804B"/>
					<stop  offset="0.3816" style="stop-color:#B88751;stop-opacity:0.6184"/>
					<stop  offset="0.9553" style="stop-color:#C89C62;stop-opacity:0.0447"/>
					<stop  offset="1" style="stop-color:#CA9E64;stop-opacity:0"/>
				</linearGradient>
				<path fill="url(#SVGID_6_)" d="M95.271,112.865c0,0-4.27,4.656-0.248,9.275"/>
				
					<linearGradient id="SVGID_7_" gradientUnits="userSpaceOnUse" x1="-840.1562" y1="782.7148" x2="-836.5527" y2="782.7148" gradientTransform="matrix(0.8548 0.5189 0.5189 -0.8548 447.7167 1231.2224)">
					<stop  offset="0" style="stop-color:#58585A"/>
					<stop  offset="0.2077" style="stop-color:#7E6F5D;stop-opacity:0.7923"/>
					<stop  offset="0.4275" style="stop-color:#9F8460;stop-opacity:0.5725"/>
					<stop  offset="0.6383" style="stop-color:#B79262;stop-opacity:0.3617"/>
					<stop  offset="0.834" style="stop-color:#C59B64;stop-opacity:0.166"/>
					<stop  offset="1" style="stop-color:#CA9E64;stop-opacity:0"/>
				</linearGradient>
				<path fill="url(#SVGID_7_)" d="M140.182,125.766c0,0-0.721-1.326-2.434-1.449c-0.498-0.032-2.918,4.711-3.615,4.47"/>
				
					<linearGradient id="SVGID_8_" gradientUnits="userSpaceOnUse" x1="-6104.6455" y1="-451.7642" x2="-6101.0762" y2="-451.7642" gradientTransform="matrix(-0.9962 -0.087 0.087 -0.9962 -5943.2852 -861.3284)">
					<stop  offset="0" style="stop-color:#58585A"/>
					<stop  offset="0.2077" style="stop-color:#7E6F5D;stop-opacity:0.7923"/>
					<stop  offset="0.4275" style="stop-color:#9F8460;stop-opacity:0.5725"/>
					<stop  offset="0.6383" style="stop-color:#B79262;stop-opacity:0.3617"/>
					<stop  offset="0.834" style="stop-color:#C59B64;stop-opacity:0.166"/>
					<stop  offset="1" style="stop-color:#CA9E64;stop-opacity:0"/>
				</linearGradient>
				<path fill="url(#SVGID_8_)" d="M95.534,116.869c0,0,1.385-0.652,2.84,0.242c0.42,0.26-0.487,5.49,0.224,5.699"/>
				
					<linearGradient id="SVGID_9_" gradientUnits="userSpaceOnUse" x1="-4626.4233" y1="-811.8652" x2="-4623.9404" y2="-811.8652" gradientTransform="matrix(-0.9938 0.1107 0.1107 0.9938 -4360.7334 1437.917)">
					<stop  offset="0" style="stop-color:#B2804B"/>
					<stop  offset="0.3816" style="stop-color:#B88751;stop-opacity:0.6184"/>
					<stop  offset="0.9553" style="stop-color:#C89C62;stop-opacity:0.0447"/>
					<stop  offset="1" style="stop-color:#CA9E64;stop-opacity:0"/>
				</linearGradient>
				<path fill="url(#SVGID_9_)" d="M145.381,125.393c0,0,4.803-6.953-1.404-12.358"/>
				<path fill="none" stroke="#4D3C34" stroke-width="0.2585" d="M95.655,117.105c0,0,2.258-2.709,2.582-2.088
					c1.122,2.139,4.071,7.303,5.268,5.537c1.546-2.289,0.134-4.939,0.134-4.939s1.537,8.893,4.85,6.873
					c3.311-2.014,22.508,0.053,22.508,0.053s3.129,4.811,4.416,0.969c1.287-3.838,1.287-3.838,1.287-3.838s-2.322,7.812-0.146,5.512
					c2.772-2.932,0.911,1.779,5.479-2.812"/>
				
					<linearGradient id="SVGID_10_" gradientUnits="userSpaceOnUse" x1="-390.498" y1="-599.5605" x2="-354.6895" y2="-599.5605" gradientTransform="matrix(0.9997 0.0264 0.0264 -0.9997 509.028 -456.1425)">
					<stop  offset="0" style="stop-color:#B2804B"/>
					<stop  offset="0.3816" style="stop-color:#B88751;stop-opacity:0.6184"/>
					<stop  offset="0.9553" style="stop-color:#C89C62;stop-opacity:0.0447"/>
					<stop  offset="1" style="stop-color:#CA9E64;stop-opacity:0"/>
				</linearGradient>
				<path fill="url(#SVGID_10_)" d="M102.88,130.654c0,0,6.146,2.246,11.647,3.156c7.352,1.219,20.76-0.761,24.229-5.188
					C138.76,128.623,122.111,149.699,102.88,130.654z"/>
				<path opacity="0.26" fill="#28170C" enable-background="new    " d="M106.042,131.707c0,0,6.131,1.836,9.14,2.332
					c4.021,0.666,14.91,0.762,16.812-1.66C131.992,132.379,116.557,142.121,106.042,131.707z"/>
				<path fill="none" stroke="#4D3C34" stroke-width="0.2585" d="M103.505,120.555"/>
			</g>
			
				<linearGradient id="SVGID_11_" gradientUnits="userSpaceOnUse" x1="-389.1885" y1="-677.6821" x2="-358.5068" y2="-677.6821" gradientTransform="matrix(1 0 0 -1 420 -593)">
				<stop  offset="0" style="stop-color:#B2804B"/>
				<stop  offset="0.2854" style="stop-color:#BF9058;stop-opacity:0.7146"/>
				<stop  offset="0.619" style="stop-color:#C79B61;stop-opacity:0.381"/>
				<stop  offset="1" style="stop-color:#CA9E64;stop-opacity:0"/>
			</linearGradient>
			<path fill="url(#SVGID_11_)" d="M40.999,90.338c-6.563-5.215-8.812-13.411-5.707-19.361c-0.631,0.504-1.228,1.062-1.756,1.702
				c-4.937,5.978-2.978,15.559,4.373,21.399c7.356,5.84,17.313,5.73,22.252-0.248c0.526-0.637,0.961-1.326,1.332-2.037
				C56.206,96.012,47.564,95.555,40.999,90.338z"/>
			
				<linearGradient id="SVGID_12_" gradientUnits="userSpaceOnUse" x1="-4247.0322" y1="-4788.0034" x2="-4216.9355" y2="-4788.0034" gradientTransform="matrix(-0.338 -0.9412 -0.9412 0.338 -5757.2012 -2305.8984)">
				<stop  offset="0" style="stop-color:#CA9E64;stop-opacity:0"/>
				<stop  offset="0.4146" style="stop-color:#BF9058;stop-opacity:0.4146"/>
				<stop  offset="1" style="stop-color:#B2804B"/>
			</linearGradient>
			<path fill="url(#SVGID_12_)" d="M186.824,61.75c-2.785,7.822-9.891,12.67-16.65,11.812c0.699,0.41,1.438,0.771,2.229,1.047
				c7.404,2.532,15.938-2.514,19.058-11.271c3.119-8.77-0.354-17.924-7.765-20.459c-0.786-0.272-1.596-0.442-2.401-0.549
				C187.129,45.791,189.607,53.923,186.824,61.75z"/>
		</g>
	</g>
</g>
</svg>
